<svg id="Layer_1" enable-background="new 0 0 124 124" height="512" viewBox="0 0 124 124" width="512" xmlns="http://www.w3.org/2000/svg"><path id="XMLID_1666_" d="m36.373 80.172h1.999v49.412h-1.999z" transform="matrix(.502 -.865 .865 .502 -72.086 84.505)"/><path id="XMLID_1639_" d="m112.214 85.789v-47.639c2.16-.464 3.786-2.395 3.786-4.703 0-2.653-2.147-4.813-4.786-4.813-1.394 0-2.639.613-3.515 1.573l-41.168-23.918c.985-3.042-1.303-6.289-4.531-6.289s-5.516 3.247-4.531 6.289l-41.04 23.844c-.878-1.048-2.176-1.729-3.643-1.729-2.639.001-4.786 2.16-4.786 4.814 0 2.308 1.626 4.239 3.786 4.703v47.868c-2.16.464-3.786 2.395-3.786 4.703 0 2.653 2.147 4.813 4.786 4.813 1.375 0 2.608-.595 3.481-1.532l41.201 23.938c-.984 3.042 1.304 6.289 4.532 6.289s5.516-3.247 4.531-6.289l41.201-23.938c.874.937 2.106 1.532 3.481 1.532 2.639 0 4.786-2.159 4.786-4.813.001-2.308-1.625-4.239-3.785-4.703zm-1-55.154c1.536 0 2.786 1.262 2.786 2.813s-1.25 2.813-2.786 2.813-2.785-1.262-2.785-2.813 1.249-2.813 2.785-2.813zm-45.676-22.611 41.156 23.911c-.329.991-.333 1.991-.012 2.985l-17.933 10.405-25.749-14.96v-20.849c1.001-.216 1.875-.754 2.538-1.492zm-4.538 83.299-24.73-14.368v-28.943l24.73 14.56zm1.003-30.481-24.577-14.469 24.574-14.277 24.758 14.384zm.997 1.734 24.73-14.348v28.727l-24.73 14.368zm-1-60.576c1.536 0 2.786 1.262 2.786 2.813s-1.25 2.812-2.786 2.812-2.786-1.262-2.786-2.813 1.25-2.812 2.786-2.812zm-44.634 29.901 41.096-23.877c.663.738 1.537 1.276 2.538 1.492v20.849l-25.55 14.844-18.091-10.65c.259-.892.262-1.765.007-2.658zm-7.366 1.317c0-1.551 1.25-2.813 2.786-2.813s2.785 1.262 2.785 2.813-1.249 2.813-2.785 2.813-2.786-1.262-2.786-2.813zm2.786 60.087c-1.536 0-2.786-1.262-2.786-2.813s1.25-2.813 2.786-2.813 2.785 1.262 2.785 2.813-1.249 2.813-2.785 2.813zm45.676 22.671-41.172-23.921c.924-2.682-.711-5.665-3.504-6.266v-47.868c1.048-.225 1.955-.807 2.626-1.599l17.858 10.513v30.695c0 .356.189.686.498.864l26.232 15.241v20.849c-1.001.216-1.875.754-2.538 1.492zm3.538 6.024c-1.536 0-2.786-1.262-2.786-2.813s1.25-2.813 2.786-2.813 2.786 1.262 2.786 2.813-1.25 2.813-2.786 2.813zm44.71-29.945-41.172 23.921c-.663-.737-1.537-1.276-2.538-1.491v-20.85l26.232-15.241c.309-.179.498-.508.498-.864v-30.462l17.944-10.411c.663.738 1.537 1.278 2.539 1.493v47.639c-2.793.601-4.427 3.583-3.503 6.266zm4.504 1.25c-1.536 0-2.785-1.262-2.785-2.813s1.249-2.813 2.785-2.813 2.786 1.262 2.786 2.813-1.25 2.813-2.786 2.813z"/></svg>